<?xml version="1.0" encoding="UTF-8" standalone="no"?>
<!-- Created with Inkscape (http://www.inkscape.org/) -->

<svg
   xmlns:dc="http://purl.org/dc/elements/1.1/"
   xmlns:cc="http://creativecommons.org/ns#"
   xmlns:rdf="http://www.w3.org/1999/02/22-rdf-syntax-ns#"
   xmlns:svg="http://www.w3.org/2000/svg"
   xmlns="http://www.w3.org/2000/svg"
   xmlns:sodipodi="http://sodipodi.sourceforge.net/DTD/sodipodi-0.dtd"
   xmlns:inkscape="http://www.inkscape.org/namespaces/inkscape"
   width="24"
   height="24"
   viewBox="0 0 6.3500001 6.3499999"
   version="1.1"
   id="svg4534"
   inkscape:version="0.92.1 r15371"
   sodipodi:docname="logo.svg">
  <defs
     id="defs4528" />
  <sodipodi:namedview
     id="base"
     pagecolor="#ffffff"
     bordercolor="#666666"
     borderopacity="1.0"
     inkscape:pageopacity="0.0"
     inkscape:pageshadow="2"
     inkscape:zoom="11.2"
     inkscape:cx="21.84087"
     inkscape:cy="5.4987735"
     inkscape:document-units="mm"
     inkscape:current-layer="layer1"
     showgrid="false"
     fit-margin-top="0"
     fit-margin-left="0"
     fit-margin-right="0"
     fit-margin-bottom="0"
     inkscape:window-width="1301"
     inkscape:window-height="744"
     inkscape:window-x="65"
     inkscape:window-y="24"
     inkscape:window-maximized="1"
     units="px" />
  <metadata
     id="metadata4531">
    <rdf:RDF>
      <cc:Work
         rdf:about="">
        <dc:format>image/svg+xml</dc:format>
        <dc:type
           rdf:resource="http://purl.org/dc/dcmitype/StillImage" />
        <dc:title></dc:title>
      </cc:Work>
    </rdf:RDF>
  </metadata>
  <g
     inkscape:label="Layer 1"
     inkscape:groupmode="layer"
     id="layer1">
    <path
       d="m 3.0964834,3.0366175 c 0.07641,-0.04421 0.174263,-0.01811 0.218491,0.05831 0.04423,0.07642 0.01811,0.174263 -0.05829,0.218491 -0.07641,0.04423 -0.174262,0.01814 -0.21849,-0.0583 -0.04423,-0.07641 -0.01811,-0.174277 0.05829,-0.218504 z m 1.321822,-2.017606 0.992184,0.57145 -1.024682,-0.0029 c 2.88e-4,-0.05052 -0.01246,-0.101753 -0.03957,-0.148618 -0.08138,-0.140624 -0.261413,-0.188657 -0.402037,-0.107274 l -0.0014,8.51e-4 -0.516467,-0.88481201 z m 1.089693,0.467323 -1.02037,-0.58767401 -1.020329,-0.587645 c 0.0032,-0.05548 -0.0092,-0.11248 -0.0391,-0.164181 -0.08138,-0.140624 -0.2614,-0.188629 -0.402023,-0.107247 -0.09951,0.05759 -0.152643,0.164606 -0.146366,0.272073 l -1.019051,0.58976 -1.01911797,0.58980201 c -0.09005,-0.05897 -0.209288,-0.06619 -0.308801,-0.0086 -0.14061,0.08138 -0.188657,0.261401 -0.107275,0.40201 0.0299,0.05169 0.07313,0.09086 0.122851,0.11568 l 0.0012,1.177517 0.0012,1.177447 c -0.0051,0.0026 -0.01008,0.0053 -0.01504,0.0081 -0.14061,0.08138 -0.188643,0.261399 -0.10726,0.402023 0.08138,0.14061 0.2614,0.188658 0.402023,0.107274 0.005,-0.0029 0.0098,-0.0059 0.01452,-0.009 l 1.02039497,0.587715 1.020314,0.587632 c -0.0032,0.05548 0.0092,0.112465 0.03909,0.164124 0.08138,0.140624 0.261414,0.188658 0.402037,0.107274 0.0995,-0.05759 0.152629,-0.164592 0.146367,-0.27203 l 1.01806,-0.589184 1.05843,-0.612549 c 0.07666,0.02494 0.163231,0.01849 0.238503,-0.02505 0.140623,-0.08138 0.188657,-0.261413 0.107274,-0.402023 -0.02331,-0.04024 -0.05467,-0.07289 -0.09087,-0.0971 l -0.0012,-1.14027 -0.0013,-1.177503 c 0.005,-0.0025 0.01005,-0.0052 0.015,-0.0081 0.14061,-0.08138 0.188658,-0.261414 0.107274,-0.402023 -0.08138,-0.140624 -0.261413,-0.188657 -0.402037,-0.107275 -0.005,0.0029 -0.0098,0.0059 -0.01455,0.009 z m -3.57314,3.844744 -0.99207297,-0.571384 1.02455697,0.0027 c -2.74e-4,0.05052 0.01246,0.101765 0.03958,0.14863 0.08138,0.140624 0.2614,0.188658 0.402024,0.107274 l 0.0013,-7.55e-4 0.516743,0.884812 z m -1.24633097,-2.153422 -0.0012,-1.145033 0.50983497,0.888919 -0.0013,7.41e-4 c -0.140623,0.08138 -0.188657,0.261414 -0.107274,0.402038 0.02714,0.04687 0.0652,0.0834 0.10913,0.108331 l -0.50794097,0.889798 -0.0012,-1.144799 z m 4.97613297,-0.0052 0.0011,1.091396 c -0.01036,-8.79e-4 -0.02072,-0.0012 -0.03116,-10e-4 l -0.478599,-0.834364 0.0013,-7.14e-4 c 0.14061,-0.08138 0.188644,-0.261413 0.10726,-0.402023 -0.02711,-0.04685 -0.0652,-0.0834 -0.109116,-0.108345 l 0.507942,-0.889757 z m -1.242814,2.156598 -0.989916,0.572894 0.514861,-0.885911 c 0.08825,0.05133 0.200827,0.05522 0.295534,3.98e-4 0.09469,-0.05479 0.147368,-0.154331 0.146859,-0.256441 l 1.024557,-0.005 z M 0.93936343,1.5951845 1.9303504,1.0216725 2.9211184,0.44828549 2.4064344,1.3341025 c -0.08825,-0.05136 -0.200854,-0.05529 -0.29556,-4.67e-4 -0.09471,0.05482 -0.147409,0.154359 -0.14686,0.256469 l -1.02465497,0.0051 z M 2.5098394,1.4357705 3.0253474,0.54845649 c 0.02488,0.01445 0.05166,0.02517 0.07942,0.03184 l 0.0024,2.30878601 c -0.0047,0.0012 -0.0094,0.0024 -0.01409,0.0038 l -0.631752,-1.091673 c 0.09619,-0.0916 0.121023,-0.240302 0.05156,-0.360325 z m -1.53536797,0.299695 1.02616497,-0.0051 0.003,0.0053 c 0.06947,0.120034 0.210784,0.172572 0.338112,0.134827 l 0.631779,1.091616 c -0.0035,0.0034 -0.0069,0.0068 -0.01026,0.01033 L 0.96256843,1.8201545 c 0.008,-0.02739 0.01211,-0.05593 0.01197,-0.08467 z m -0.374347,-0.136586 c 0.07643,-0.04423 0.17429,-0.01812 0.218505,0.05829 0.04423,0.07641 0.01812,0.174277 -0.05831,0.218505 -0.07642,0.04423 -0.174262,0.0181 -0.21849,-0.05832 -0.04422,-0.0764 -0.01812,-0.174249 0.05829,-0.218477 z m 0.226196,0.393755 0.0013,-7.15e-4 c 0.025,-0.01448 0.04708,-0.03207 0.06601,-0.05202 l 2.00068497,1.152286 c -0.0014,0.0046 -0.0026,0.0094 -0.0037,0.01406 l -1.261329,0.0013 c -0.0065,-0.02672 -0.01685,-0.05298 -0.03133,-0.07797 -0.05561,-0.09609 -0.157301,-0.148934 -0.261002,-0.146806 z M 3.0934614,0.15585649 c 0.07643,-0.04423 0.174263,-0.01812 0.21849,0.05829 0.04423,0.07641 0.01814,0.174262 -0.05829,0.21849 -0.07641,0.04423 -0.174263,0.0181 -0.218491,-0.05831 -0.04421,-0.07641 -0.01811,-0.174248 0.0583,-0.218477 z m 0.149495,0.424359 c 0.02676,-0.0065 0.05298,-0.01685 0.07798,-0.03133 l 0.0013,-7.97e-4 0.517346,0.88633701 c -0.05345,0.08881 -0.05828,0.203245 -0.0027,0.29931 0.01448,0.025 0.03206,0.04704 0.052,0.066 l -0.629524,1.093014 c -0.0046,-0.0014 -0.0093,-0.0026 -0.01403,-0.0037 z M 2.1781674,1.4498935 c 0.0764,-0.04422 0.174248,-0.01812 0.218476,0.05831 0.04423,0.07641 0.01811,0.174248 -0.05829,0.218476 -0.07642,0.04423 -0.174277,0.01813 -0.218505,-0.05829 -0.04423,-0.07641 -0.01811,-0.174249 0.05832,-0.21849 z m 3.174298,3.164973 -0.999915,0.0048 -0.003,-0.0053 c -0.06944,-0.120008 -0.210769,-0.17256 -0.338111,-0.134787 l -0.631794,-1.091643 c 0.0035,-0.0034 0.007,-0.0068 0.01029,-0.01033 l 1.961084,1.129496 c -0.0061,0.0353 -0.0058,0.07183 0.0014,0.10769 z m -0.336109,-1.147559 0.478613,0.834322 -0.0014,7.42e-4 c -0.03504,0.02027 -0.06434,0.04671 -0.08732,0.07711 l -1.947419,-1.121585 c 0.0014,-0.0046 0.0026,-0.0093 0.0037,-0.01406 l 1.261356,-0.0013 c 0.0065,0.02676 0.01685,0.05298 0.03133,0.07798 0.05564,0.09613 0.157366,0.148948 0.261071,0.146817 z m 0.50809,-1.479547 -0.508763,0.891158 c -0.05195,-0.0011 -0.10487,0.01162 -0.15311,0.03956 -0.07258,0.042 -0.120501,0.110254 -0.138688,0.185828 l -1.261315,0.0013 c -0.0012,-0.0047 -0.0024,-0.0094 -0.0038,-0.01409 l 1.998213,-1.156459 c 0.02006,0.02108 0.04283,0.03872 0.06747,0.05268 z m -1.174921,-0.259793 1.026151,0.0029 c -1.51e-4,0.02829 0.0038,0.0568 0.01207,0.08465 l -1.998193,1.156473 c -0.0034,-0.0036 -0.0068,-0.007 -0.01033,-0.01033 l 0.629511,-1.092976 c 0.07458,0.02188 0.15767,0.01434 0.230234,-0.02766 0.04825,-0.02792 0.0856,-0.06745 0.110557,-0.113026 z m -1.089487,1.729255 0.631803,1.091644 c -0.09618,0.09159 -0.121009,0.240302 -0.05156,0.36031 l 0.0031,0.0052 -0.515602,0.887231 c -0.02484,-0.01444 -0.05162,-0.02516 -0.07939,-0.03182 l -0.0024,-2.308773 c 0.0047,-0.0011 0.0094,-0.0024 0.01406,-0.0038 z m -0.152259,0.0038 0.0024,2.308814 c -0.02672,0.0065 -0.05299,0.01685 -0.07799,0.03133 l -0.0013,7.83e-4 -0.5175,-0.886103 c 0.05355,-0.08885 0.05842,-0.203395 0.0028,-0.299515 -0.01448,-0.02501 -0.03206,-0.04707 -0.05201,-0.06601 l 0.629525,-1.09304 c 0.0046,0.0014 0.0093,0.0026 0.01403,0.0038 z m -0.133824,-0.07265 -0.629539,1.093015 c -0.07457,-0.02187 -0.157643,-0.01434 -0.230206,0.02767 -0.04825,0.02791 -0.0856,0.06747 -0.110543,0.113017 l -1.02619397,-0.0028 c 1.51e-4,-0.02833 -0.0038,-0.05686 -0.01207,-0.08476 L 2.9636304,3.3780435 c 0.0034,0.0036 0.0068,0.007 0.01033,0.01029 z m -0.07956,-0.129895 -1.99819797,1.156472 c -0.02003,-0.02107 -0.04284,-0.03868 -0.06744,-0.05265 L 1.3374794,3.4711275 c 0.05198,0.0011 0.10487,-0.01162 0.153138,-0.03956 0.07256,-0.04199 0.120462,-0.110281 0.138659,-0.185842 l 1.261315,-0.0013 c 0.0011,0.0047 0.0024,0.0094 0.0038,0.01406 z m 1.120447,1.364883 c 0.0764,-0.04421 0.174263,-0.01811 0.218477,0.0583 0.04423,0.07642 0.01811,0.174277 -0.05828,0.218491 -0.07643,0.04423 -0.174277,0.01811 -0.218518,-0.0583 -0.04421,-0.07641 -0.01811,-0.174263 0.05832,-0.218491 z m -0.915318,1.294061 c 0.07642,-0.04424 0.174263,-0.01814 0.21849,0.05828 0.04423,0.07643 0.01811,0.174263 -0.05831,0.218491 -0.07642,0.04423 -0.174249,0.01811 -0.218477,-0.05829 -0.04423,-0.07642 -0.01814,-0.174249 0.05829,-0.218477 z m -0.91804,-1.292124 c 0.07643,-0.04423 0.174263,-0.01811 0.218477,0.05831 0.04423,0.07641 0.01814,0.174263 -0.05828,0.218491 -0.07643,0.04423 -0.174263,0.01811 -0.218491,-0.05831 -0.04421,-0.07641 -0.01814,-0.174263 0.0583,-0.21849 z m 2.748363,-1.590624 c 0.07641,-0.04423 0.174277,-0.01811 0.21849,0.05829 0.04423,0.07642 0.01811,0.174277 -0.05831,0.218505 -0.07641,0.04423 -0.174249,0.01811 -0.218477,-0.05831 -0.04423,-0.07641 -0.01814,-0.174249 0.05829,-0.21849 z m 0.631036,1.383904 c 0.07643,-0.04423 0.174277,-0.01814 0.218504,0.0583 0.04423,0.07641 0.01811,0.174277 -0.05831,0.218505 -0.07642,0.04423 -0.174263,0.01811 -0.218491,-0.05831 -0.04423,-0.07642 -0.01814,-0.174263 0.0583,-0.218491 z m 0.02892,-2.825005 c 0.07642,-0.04423 0.174291,-0.01812 0.218518,0.05831 0.04423,0.07642 0.01811,0.174262 -0.05832,0.218491 -0.0764,0.04421 -0.174249,0.01812 -0.218477,-0.05829 -0.04423,-0.07642 -0.01811,-0.174289 0.05828,-0.218504 z m -4.98666097,2.886068 c 0.07642,-0.04423 0.174262,-0.01811 0.218491,0.05831 0.04423,0.07643 0.01813,0.174249 -0.05829,0.218477 -0.07642,0.04423 -0.174262,0.01814 -0.218491,-0.05828 -0.04423,-0.07643 -0.01812,-0.174277 0.05829,-0.218504 z M 1.2631314,3.0385535 c 0.07641,-0.04423 0.174249,-0.01814 0.218477,0.05829 0.04423,0.07641 0.01814,0.174249 -0.0583,0.218476 -0.07642,0.04423 -0.174248,0.01811 -0.218476,-0.05829 -0.04423,-0.07643 -0.01814,-0.174249 0.05829,-0.218477 z m 2.74835,-1.590624 c 0.07642,-0.04423 0.174276,-0.01815 0.218504,0.05828 0.04423,0.07642 0.01811,0.174262 -0.05832,0.21849 -0.07641,0.04423 -0.174249,0.01812 -0.218477,-0.05829 -0.04423,-0.07643 -0.01814,-0.174249 0.05829,-0.218477 z"
       inkscape:connector-curvature="0"
       style="stroke-width:0.13735494" />
  </g>
</svg>
